<svg width="1203" height="48" viewBox="0 0 1203 48" fill="none" xmlns="http://www.w3.org/2000/svg">
<path d="M32.1875 28.2812L44.5938 32.0312C43.7604 35.5104 42.4479 38.4167 40.6562 40.75C38.8646 43.0833 36.6354 44.8438 33.9688 46.0312C31.3229 47.2188 27.9479 47.8125 23.8438 47.8125C18.8646 47.8125 14.7917 47.0938 11.625 45.6562C8.47917 44.1979 5.76042 41.6458 3.46875 38C1.17708 34.3542 0.03125 29.6875 0.03125 24C0.03125 16.4167 2.04167 10.5938 6.0625 6.53125C10.1042 2.44792 15.8125 0.40625 23.1875 0.40625C28.9583 0.40625 33.4896 1.57292 36.7812 3.90625C40.0938 6.23958 42.5521 9.82292 44.1562 14.6562L31.6562 17.4375C31.2188 16.0417 30.7604 15.0208 30.2812 14.375C29.4896 13.2917 28.5208 12.4583 27.375 11.875C26.2292 11.2917 24.9479 11 23.5312 11C20.3229 11 17.8646 12.2917 16.1562 14.875C14.8646 16.7917 14.2188 19.8021 14.2188 23.9062C14.2188 28.9896 14.9896 32.4792 16.5312 34.375C18.0729 36.25 20.2396 37.1875 23.0312 37.1875C25.7396 37.1875 27.7812 36.4271 29.1562 34.9062C30.5521 33.3854 31.5625 31.1771 32.1875 28.2812ZM51.5625 1.1875H65.7188V17.2188H81.1875V1.1875H95.4062V47H81.1875V28.4688H65.7188V47H51.5625V1.1875ZM105.375 1.1875H119.562V47H105.375V1.1875ZM129.812 1.1875H143.969V18.5L158.812 1.1875H177.625L160.938 18.4688L178.375 47H160.938L151.281 28.1562L143.969 35.8125V47H129.812V1.1875ZM211.25 39.4375H195.125L192.906 47H178.438L195.656 1.1875H211.094L228.312 47H213.5L211.25 39.4375ZM208.281 29.5312L203.219 13.0625L198.188 29.5312H208.281ZM255.906 30.4062V20.875H277.781V40.4062C273.594 43.2604 269.885 45.2083 266.656 46.25C263.448 47.2708 259.635 47.7812 255.219 47.7812C249.781 47.7812 245.344 46.8542 241.906 45C238.49 43.1458 235.833 40.3854 233.938 36.7188C232.062 33.0521 231.125 28.8438 231.125 24.0938C231.125 19.0938 232.156 14.75 234.219 11.0625C236.281 7.35417 239.302 4.54167 243.281 2.625C246.385 1.14583 250.562 0.40625 255.812 0.40625C260.875 0.40625 264.656 0.864583 267.156 1.78125C269.677 2.69792 271.76 4.125 273.406 6.0625C275.073 7.97917 276.323 10.4167 277.156 13.375L263.5 15.8125C262.938 14.0833 261.979 12.7604 260.625 11.8438C259.292 10.9271 257.583 10.4688 255.5 10.4688C252.396 10.4688 249.917 11.5521 248.062 13.7188C246.229 15.8646 245.312 19.2708 245.312 23.9375C245.312 28.8958 246.24 32.4375 248.094 34.5625C249.969 36.6875 252.573 37.75 255.906 37.75C257.49 37.75 259 37.5208 260.438 37.0625C261.875 36.6042 263.521 35.8229 265.375 34.7188V30.4062H255.906ZM286.156 1.1875H324.094V10.9688H300.344V18.25H322.375V27.5938H300.344V36.625H324.781V47H286.156V1.1875ZM350.594 1.1875H393.625V12.5H379.188V47H365.031V12.5H350.594V1.1875ZM428.25 39.4375H412.125L409.906 47H395.438L412.656 1.1875H428.094L445.312 47H430.5L428.25 39.4375ZM425.281 29.5312L420.219 13.0625L415.188 29.5312H425.281ZM449.938 1.1875H464.094V18.5L478.938 1.1875H497.75L481.062 18.4688L498.5 47H481.062L471.406 28.1562L464.094 35.8125V47H449.938V1.1875ZM531.375 39.4375H515.25L513.031 47H498.562L515.781 1.1875H531.219L548.438 47H533.625L531.375 39.4375ZM528.406 29.5312L523.344 13.0625L518.312 29.5312H528.406ZM553.062 1.1875H567.219V17.2188H582.688V1.1875H596.906V47H582.688V28.4688H567.219V47H553.062V1.1875ZM634.5 39.4375H618.375L616.156 47H601.688L618.906 1.1875H634.344L651.562 47H636.75L634.5 39.4375ZM631.531 29.5312L626.469 13.0625L621.438 29.5312H631.531ZM653.656 31.8438L667.125 31C667.417 33.1875 668.01 34.8542 668.906 36C670.365 37.8542 672.448 38.7812 675.156 38.7812C677.177 38.7812 678.729 38.3125 679.812 37.375C680.917 36.4167 681.469 35.3125 681.469 34.0625C681.469 32.875 680.948 31.8125 679.906 30.875C678.865 29.9375 676.448 29.0521 672.656 28.2188C666.448 26.8229 662.021 24.9688 659.375 22.6562C656.708 20.3438 655.375 17.3958 655.375 13.8125C655.375 11.4583 656.052 9.23958 657.406 7.15625C658.781 5.05208 660.833 3.40625 663.562 2.21875C666.312 1.01042 670.073 0.40625 674.844 0.40625C680.698 0.40625 685.156 1.5 688.219 3.6875C691.302 5.85417 693.135 9.3125 693.719 14.0625L680.375 14.8438C680.021 12.7812 679.271 11.2812 678.125 10.3438C677 9.40625 675.438 8.9375 673.438 8.9375C671.792 8.9375 670.552 9.29167 669.719 10C668.885 10.6875 668.469 11.5312 668.469 12.5312C668.469 13.2604 668.812 13.9167 669.5 14.5C670.167 15.1042 671.75 15.6667 674.25 16.1875C680.438 17.5208 684.865 18.875 687.531 20.25C690.219 21.6042 692.167 23.2917 693.375 25.3125C694.604 27.3333 695.219 29.5938 695.219 32.0938C695.219 35.0312 694.406 37.7396 692.781 40.2188C691.156 42.6979 688.885 44.5833 685.969 45.875C683.052 47.1458 679.375 47.7812 674.938 47.7812C667.146 47.7812 661.75 46.2812 658.75 43.2812C655.75 40.2812 654.052 36.4688 653.656 31.8438ZM702.438 1.1875H716.594V17.2188H732.062V1.1875H746.281V47H732.062V28.4688H716.594V47H702.438V1.1875ZM756.25 1.1875H770.438V47H756.25V1.1875ZM801.844 1.1875H820.469L827.656 29.0625L834.812 1.1875H853.375V47H841.812V12.0625L832.844 47H822.375L813.438 12.0625V47H801.844V1.1875ZM860.656 24.125C860.656 16.6458 862.74 10.8229 866.906 6.65625C871.073 2.48958 876.875 0.40625 884.312 0.40625C891.938 0.40625 897.812 2.45833 901.938 6.5625C906.062 10.6458 908.125 16.375 908.125 23.75C908.125 29.1042 907.219 33.5 905.406 36.9375C903.615 40.3542 901.01 43.0208 897.594 44.9375C894.198 46.8333 889.958 47.7812 884.875 47.7812C879.708 47.7812 875.427 46.9583 872.031 45.3125C868.656 43.6667 865.917 41.0625 863.812 37.5C861.708 33.9375 860.656 29.4792 860.656 24.125ZM874.812 24.1875C874.812 28.8125 875.667 32.1354 877.375 34.1562C879.104 36.1771 881.448 37.1875 884.406 37.1875C887.448 37.1875 889.802 36.1979 891.469 34.2188C893.135 32.2396 893.969 28.6875 893.969 23.5625C893.969 19.25 893.094 16.1042 891.344 14.125C889.615 12.125 887.26 11.125 884.281 11.125C881.427 11.125 879.135 12.1354 877.406 14.1562C875.677 16.1771 874.812 19.5208 874.812 24.1875ZM915.75 1.1875H929.906V35.7188H952V47H915.75V1.1875ZM986.625 39.4375H970.5L968.281 47H953.812L971.031 1.1875H986.469L1003.69 47H988.875L986.625 39.4375ZM983.656 29.5312L978.594 13.0625L973.562 29.5312H983.656ZM1008.34 1.1875H1021.56L1038.81 26.5312V1.1875H1052.16V47H1038.81L1021.66 21.8438V47H1008.34V1.1875ZM1061.75 1.1875H1082.78C1086.93 1.1875 1090.27 1.75 1092.81 2.875C1095.38 4 1097.49 5.61458 1099.16 7.71875C1100.82 9.82292 1102.03 12.2708 1102.78 15.0625C1103.53 17.8542 1103.91 20.8125 1103.91 23.9375C1103.91 28.8333 1103.34 32.6354 1102.22 35.3438C1101.11 38.0312 1099.57 40.2917 1097.59 42.125C1095.61 43.9375 1093.49 45.1458 1091.22 45.75C1088.11 46.5833 1085.3 47 1082.78 47H1061.75V1.1875ZM1075.91 11.5625V36.5938H1079.38C1082.33 36.5938 1084.44 36.2708 1085.69 35.625C1086.94 34.9583 1087.92 33.8125 1088.62 32.1875C1089.33 30.5417 1089.69 27.8854 1089.69 24.2188C1089.69 19.3646 1088.9 16.0417 1087.31 14.25C1085.73 12.4583 1083.1 11.5625 1079.44 11.5625H1075.91ZM1111.34 1.1875H1149.28V10.9688H1125.53V18.25H1147.56V27.5938H1125.53V36.625H1149.97V47H1111.34V1.1875ZM1157.81 47V1.1875H1181.41C1185.78 1.1875 1189.12 1.5625 1191.44 2.3125C1193.75 3.0625 1195.61 4.45833 1197.03 6.5C1198.45 8.52083 1199.16 10.9896 1199.16 13.9062C1199.16 16.4479 1198.61 18.6458 1197.53 20.5C1196.45 22.3333 1194.96 23.8229 1193.06 24.9688C1191.85 25.6979 1190.2 26.3021 1188.09 26.7812C1189.78 27.3438 1191.01 27.9062 1191.78 28.4688C1192.3 28.8438 1193.05 29.6458 1194.03 30.875C1195.03 32.1042 1195.7 33.0521 1196.03 33.7188L1202.88 47H1186.88L1179.31 33C1178.35 31.1875 1177.5 30.0104 1176.75 29.4688C1175.73 28.7604 1174.57 28.4062 1173.28 28.4062H1172.03V47H1157.81ZM1172.03 19.75H1178C1178.65 19.75 1179.9 19.5417 1181.75 19.125C1182.69 18.9375 1183.45 18.4583 1184.03 17.6875C1184.64 16.9167 1184.94 16.0312 1184.94 15.0312C1184.94 13.5521 1184.47 12.4167 1183.53 11.625C1182.59 10.8333 1180.83 10.4375 1178.25 10.4375H1172.03V19.75Z" fill="#CCCCCC"/>
</svg>
